<mxfile host="app.diagrams.net" agent="Mozilla/5.0 (Windows NT 10.0; Win64; x64) AppleWebKit/537.36 (KHTML, like Gecko) Chrome/134.0.0.0 Safari/537.36" version="26.1.1">
  <diagram name="Page-1" id="FJ1rE6Vz4ivJhDLONamF">
    <mxGraphModel dx="2950" dy="2144" grid="1" gridSize="10" guides="1" tooltips="1" connect="1" arrows="1" fold="1" page="1" pageScale="1" pageWidth="850" pageHeight="1100" math="0" shadow="0">
      <root>
        <mxCell id="0" />
        <mxCell id="1" parent="0" />
        <mxCell id="owWZMEsKMAI6P8K47Dzx-1" value="crm_cust_info" style="swimlane;fontStyle=0;childLayout=stackLayout;horizontal=1;startSize=30;horizontalStack=0;resizeParent=1;resizeParentMax=0;resizeLast=0;collapsible=1;marginBottom=0;whiteSpace=wrap;html=1;fillColor=#dae8fc;strokeColor=#6c8ebf;rounded=1;sketch=1;curveFitting=1;jiggle=2;swimlaneLine=1;fontSize=20;" parent="1" vertex="1">
          <mxGeometry x="370" y="60" width="140" height="90" as="geometry" />
        </mxCell>
        <mxCell id="owWZMEsKMAI6P8K47Dzx-2" value="cst_id" style="text;strokeColor=none;fillColor=none;align=left;verticalAlign=middle;spacingLeft=4;spacingRight=4;overflow=hidden;points=[[0,0.5],[1,0.5]];portConstraint=eastwest;rotatable=0;whiteSpace=wrap;html=1;fontSize=20;" parent="owWZMEsKMAI6P8K47Dzx-1" vertex="1">
          <mxGeometry y="30" width="140" height="30" as="geometry" />
        </mxCell>
        <mxCell id="owWZMEsKMAI6P8K47Dzx-24" value="cst_key" style="text;strokeColor=none;fillColor=none;align=left;verticalAlign=middle;spacingLeft=4;spacingRight=4;overflow=hidden;points=[[0,0.5],[1,0.5]];portConstraint=eastwest;rotatable=0;whiteSpace=wrap;html=1;fontSize=20;" parent="owWZMEsKMAI6P8K47Dzx-1" vertex="1">
          <mxGeometry y="60" width="140" height="30" as="geometry" />
        </mxCell>
        <mxCell id="owWZMEsKMAI6P8K47Dzx-5" value="Customer Information" style="rounded=0;whiteSpace=wrap;html=1;" parent="1" vertex="1">
          <mxGeometry x="380" y="40" width="120" height="20" as="geometry" />
        </mxCell>
        <mxCell id="owWZMEsKMAI6P8K47Dzx-6" value="crm_prd_info" style="swimlane;fontStyle=0;childLayout=stackLayout;horizontal=1;startSize=30;horizontalStack=0;resizeParent=1;resizeParentMax=0;resizeLast=0;collapsible=1;marginBottom=0;whiteSpace=wrap;html=1;fillColor=#dae8fc;strokeColor=#6c8ebf;rounded=1;sketch=1;curveFitting=1;jiggle=2;swimlaneLine=1;fontSize=20;" parent="1" vertex="1">
          <mxGeometry x="410" y="300" width="140" height="60" as="geometry" />
        </mxCell>
        <mxCell id="owWZMEsKMAI6P8K47Dzx-7" value="prd_key" style="text;strokeColor=none;fillColor=none;align=left;verticalAlign=middle;spacingLeft=4;spacingRight=4;overflow=hidden;points=[[0,0.5],[1,0.5]];portConstraint=eastwest;rotatable=0;whiteSpace=wrap;html=1;fontSize=20;" parent="owWZMEsKMAI6P8K47Dzx-6" vertex="1">
          <mxGeometry y="30" width="140" height="30" as="geometry" />
        </mxCell>
        <mxCell id="owWZMEsKMAI6P8K47Dzx-8" value="Current &amp;amp; History Product Information" style="rounded=0;whiteSpace=wrap;html=1;" parent="1" vertex="1">
          <mxGeometry x="420" y="260" width="120" height="40" as="geometry" />
        </mxCell>
        <mxCell id="owWZMEsKMAI6P8K47Dzx-9" value="&lt;font style=&quot;font-size: 40px;&quot;&gt;&lt;b&gt;Integration model&amp;nbsp;&lt;/b&gt;&lt;/font&gt;" style="text;html=1;align=center;verticalAlign=middle;whiteSpace=wrap;rounded=0;" parent="1" vertex="1">
          <mxGeometry x="60" y="-130" width="400" height="30" as="geometry" />
        </mxCell>
        <mxCell id="owWZMEsKMAI6P8K47Dzx-11" value="(How tables are related)" style="text;html=1;align=center;verticalAlign=middle;whiteSpace=wrap;rounded=0;" parent="1" vertex="1">
          <mxGeometry x="390" y="-130" width="220" height="30" as="geometry" />
        </mxCell>
        <mxCell id="owWZMEsKMAI6P8K47Dzx-12" value="crm_sales_details" style="swimlane;fontStyle=0;childLayout=stackLayout;horizontal=1;startSize=30;horizontalStack=0;resizeParent=1;resizeParentMax=0;resizeLast=0;collapsible=1;marginBottom=0;whiteSpace=wrap;html=1;fillColor=#dae8fc;strokeColor=#6c8ebf;rounded=1;sketch=1;curveFitting=1;jiggle=2;swimlaneLine=1;fontSize=20;" parent="1" vertex="1">
          <mxGeometry x="-85" y="160" width="280" height="150" as="geometry" />
        </mxCell>
        <mxCell id="owWZMEsKMAI6P8K47Dzx-13" value="prd_key" style="text;strokeColor=none;fillColor=none;align=left;verticalAlign=middle;spacingLeft=4;spacingRight=4;overflow=hidden;points=[[0,0.5],[1,0.5]];portConstraint=eastwest;rotatable=0;whiteSpace=wrap;html=1;fontSize=20;" parent="owWZMEsKMAI6P8K47Dzx-12" vertex="1">
          <mxGeometry y="30" width="280" height="60" as="geometry" />
        </mxCell>
        <mxCell id="owWZMEsKMAI6P8K47Dzx-16" value="cst_id" style="text;strokeColor=none;fillColor=none;align=left;verticalAlign=middle;spacingLeft=4;spacingRight=4;overflow=hidden;points=[[0,0.5],[1,0.5]];portConstraint=eastwest;rotatable=0;whiteSpace=wrap;html=1;fontSize=20;" parent="owWZMEsKMAI6P8K47Dzx-12" vertex="1">
          <mxGeometry y="90" width="280" height="60" as="geometry" />
        </mxCell>
        <mxCell id="owWZMEsKMAI6P8K47Dzx-14" value="Transactional Records about Sales" style="rounded=0;whiteSpace=wrap;html=1;" parent="1" vertex="1">
          <mxGeometry x="-50" y="140" width="210" height="20" as="geometry" />
        </mxCell>
        <mxCell id="owWZMEsKMAI6P8K47Dzx-20" style="edgeStyle=orthogonalEdgeStyle;rounded=0;orthogonalLoop=1;jettySize=auto;html=1;exitX=1;exitY=0.5;exitDx=0;exitDy=0;entryX=0;entryY=0.5;entryDx=0;entryDy=0;" parent="1" source="owWZMEsKMAI6P8K47Dzx-13" target="owWZMEsKMAI6P8K47Dzx-7" edge="1">
          <mxGeometry relative="1" as="geometry" />
        </mxCell>
        <mxCell id="owWZMEsKMAI6P8K47Dzx-21" value="erp_cust_az12" style="swimlane;fontStyle=0;childLayout=stackLayout;horizontal=1;startSize=30;horizontalStack=0;resizeParent=1;resizeParentMax=0;resizeLast=0;collapsible=1;marginBottom=0;whiteSpace=wrap;html=1;fillColor=#fff2cc;strokeColor=#d6b656;rounded=1;sketch=1;curveFitting=1;jiggle=2;swimlaneLine=1;fontSize=20;" parent="1" vertex="1">
          <mxGeometry x="690" y="50" width="140" height="60" as="geometry" />
        </mxCell>
        <mxCell id="owWZMEsKMAI6P8K47Dzx-22" value="cid" style="text;strokeColor=none;fillColor=none;align=left;verticalAlign=middle;spacingLeft=4;spacingRight=4;overflow=hidden;points=[[0,0.5],[1,0.5]];portConstraint=eastwest;rotatable=0;whiteSpace=wrap;html=1;fontSize=20;" parent="owWZMEsKMAI6P8K47Dzx-21" vertex="1">
          <mxGeometry y="30" width="140" height="30" as="geometry" />
        </mxCell>
        <mxCell id="owWZMEsKMAI6P8K47Dzx-23" value="Extra Customer Information(BirthDate)" style="rounded=0;whiteSpace=wrap;html=1;fillColor=#fff2cc;strokeColor=#d6b656;" parent="1" vertex="1">
          <mxGeometry x="700" y="30" width="120" height="20" as="geometry" />
        </mxCell>
        <mxCell id="owWZMEsKMAI6P8K47Dzx-26" style="edgeStyle=orthogonalEdgeStyle;rounded=0;orthogonalLoop=1;jettySize=auto;html=1;exitX=0;exitY=0.5;exitDx=0;exitDy=0;entryX=1;entryY=0.5;entryDx=0;entryDy=0;" parent="1" source="owWZMEsKMAI6P8K47Dzx-22" target="owWZMEsKMAI6P8K47Dzx-24" edge="1">
          <mxGeometry relative="1" as="geometry" />
        </mxCell>
        <mxCell id="owWZMEsKMAI6P8K47Dzx-27" value="erp_loc_a101" style="swimlane;fontStyle=0;childLayout=stackLayout;horizontal=1;startSize=30;horizontalStack=0;resizeParent=1;resizeParentMax=0;resizeLast=0;collapsible=1;marginBottom=0;whiteSpace=wrap;html=1;fillColor=#fff2cc;strokeColor=#d6b656;rounded=1;sketch=1;curveFitting=1;jiggle=2;swimlaneLine=1;fontSize=20;" parent="1" vertex="1">
          <mxGeometry x="680" y="170" width="140" height="60" as="geometry" />
        </mxCell>
        <mxCell id="owWZMEsKMAI6P8K47Dzx-28" value="cid" style="text;strokeColor=none;fillColor=none;align=left;verticalAlign=middle;spacingLeft=4;spacingRight=4;overflow=hidden;points=[[0,0.5],[1,0.5]];portConstraint=eastwest;rotatable=0;whiteSpace=wrap;html=1;fontSize=20;" parent="owWZMEsKMAI6P8K47Dzx-27" vertex="1">
          <mxGeometry y="30" width="140" height="30" as="geometry" />
        </mxCell>
        <mxCell id="owWZMEsKMAI6P8K47Dzx-29" value="Extra Customer Information(Country)" style="rounded=0;whiteSpace=wrap;html=1;fillColor=#fff2cc;strokeColor=#d6b656;" parent="1" vertex="1">
          <mxGeometry x="690" y="150" width="120" height="10" as="geometry" />
        </mxCell>
        <mxCell id="owWZMEsKMAI6P8K47Dzx-30" style="edgeStyle=orthogonalEdgeStyle;rounded=0;orthogonalLoop=1;jettySize=auto;html=1;exitX=0;exitY=0.5;exitDx=0;exitDy=0;entryX=1;entryY=0.5;entryDx=0;entryDy=0;" parent="1" source="owWZMEsKMAI6P8K47Dzx-28" target="owWZMEsKMAI6P8K47Dzx-24" edge="1">
          <mxGeometry relative="1" as="geometry" />
        </mxCell>
        <mxCell id="owWZMEsKMAI6P8K47Dzx-31" value="erp_px_cat_g1v2" style="swimlane;fontStyle=0;childLayout=stackLayout;horizontal=1;startSize=30;horizontalStack=0;resizeParent=1;resizeParentMax=0;resizeLast=0;collapsible=1;marginBottom=0;whiteSpace=wrap;html=1;fillColor=#fff2cc;strokeColor=#d6b656;rounded=1;sketch=1;curveFitting=1;jiggle=2;swimlaneLine=1;fontSize=20;" parent="1" vertex="1">
          <mxGeometry x="680" y="340" width="200" height="60" as="geometry" />
        </mxCell>
        <mxCell id="owWZMEsKMAI6P8K47Dzx-32" value="id" style="text;strokeColor=none;fillColor=none;align=left;verticalAlign=middle;spacingLeft=4;spacingRight=4;overflow=hidden;points=[[0,0.5],[1,0.5]];portConstraint=eastwest;rotatable=0;whiteSpace=wrap;html=1;fontSize=20;" parent="owWZMEsKMAI6P8K47Dzx-31" vertex="1">
          <mxGeometry y="30" width="200" height="30" as="geometry" />
        </mxCell>
        <mxCell id="owWZMEsKMAI6P8K47Dzx-33" value="Product Category &amp;amp; Subcategory Information" style="rounded=0;whiteSpace=wrap;html=1;" parent="1" vertex="1">
          <mxGeometry x="690" y="300" width="160" height="40" as="geometry" />
        </mxCell>
        <mxCell id="owWZMEsKMAI6P8K47Dzx-34" style="edgeStyle=orthogonalEdgeStyle;rounded=0;orthogonalLoop=1;jettySize=auto;html=1;exitX=0;exitY=0.5;exitDx=0;exitDy=0;entryX=1;entryY=0.5;entryDx=0;entryDy=0;" parent="1" source="owWZMEsKMAI6P8K47Dzx-32" target="owWZMEsKMAI6P8K47Dzx-7" edge="1">
          <mxGeometry relative="1" as="geometry" />
        </mxCell>
        <mxCell id="owWZMEsKMAI6P8K47Dzx-35" value="" style="whiteSpace=wrap;html=1;aspect=fixed;fillColor=none;" parent="1" vertex="1">
          <mxGeometry x="-110" y="-30" width="680" height="680" as="geometry" />
        </mxCell>
        <mxCell id="owWZMEsKMAI6P8K47Dzx-37" value="Text" style="text;html=1;align=center;verticalAlign=middle;whiteSpace=wrap;rounded=0;" parent="1" vertex="1">
          <mxGeometry x="380" y="30" width="60" height="30" as="geometry" />
        </mxCell>
        <mxCell id="owWZMEsKMAI6P8K47Dzx-38" value="&lt;font style=&quot;font-size: 30px;&quot;&gt;CRM&lt;/font&gt;" style="text;html=1;align=center;verticalAlign=middle;whiteSpace=wrap;rounded=0;fillColor=#dae8fc;strokeColor=#6c8ebf;" parent="1" vertex="1">
          <mxGeometry x="170" y="-60" width="60" height="30" as="geometry" />
        </mxCell>
        <mxCell id="owWZMEsKMAI6P8K47Dzx-39" value="" style="whiteSpace=wrap;html=1;aspect=fixed;fillColor=none;" parent="1" vertex="1">
          <mxGeometry x="630" y="-10" width="470" height="470" as="geometry" />
        </mxCell>
        <mxCell id="owWZMEsKMAI6P8K47Dzx-40" value="&lt;font style=&quot;font-size: 30px;&quot;&gt;ERP&lt;/font&gt;" style="text;html=1;align=center;verticalAlign=middle;whiteSpace=wrap;rounded=0;fillColor=#fff2cc;strokeColor=#d6b656;" parent="1" vertex="1">
          <mxGeometry x="820" y="-50" width="60" height="30" as="geometry" />
        </mxCell>
        <mxCell id="_liksZetfF2YFDfTariN-1" value="&lt;font style=&quot;font-size: 24px;&quot;&gt;Products&lt;/font&gt;" style="text;html=1;strokeColor=#b85450;fillColor=#f8cecc;align=center;verticalAlign=middle;whiteSpace=wrap;overflow=hidden;" vertex="1" parent="1">
          <mxGeometry x="715" y="400" width="130" height="30" as="geometry" />
        </mxCell>
        <mxCell id="_liksZetfF2YFDfTariN-2" value="&lt;font style=&quot;font-size: 24px;&quot;&gt;Products&lt;/font&gt;" style="text;html=1;strokeColor=#b85450;fillColor=#f8cecc;align=center;verticalAlign=middle;whiteSpace=wrap;overflow=hidden;" vertex="1" parent="1">
          <mxGeometry x="430" y="370" width="130" height="30" as="geometry" />
        </mxCell>
        <mxCell id="_liksZetfF2YFDfTariN-3" value="&lt;font style=&quot;font-size: 24px;&quot;&gt;Customers&lt;/font&gt;" style="text;html=1;strokeColor=#82b366;fillColor=#d5e8d4;align=center;verticalAlign=middle;whiteSpace=wrap;overflow=hidden;" vertex="1" parent="1">
          <mxGeometry x="690" y="230" width="130" height="30" as="geometry" />
        </mxCell>
        <mxCell id="_liksZetfF2YFDfTariN-4" value="&lt;font style=&quot;font-size: 24px;&quot;&gt;Customers&lt;/font&gt;" style="text;html=1;strokeColor=#82b366;fillColor=#d5e8d4;align=center;verticalAlign=middle;whiteSpace=wrap;overflow=hidden;" vertex="1" parent="1">
          <mxGeometry x="375" y="150" width="130" height="30" as="geometry" />
        </mxCell>
        <mxCell id="_liksZetfF2YFDfTariN-5" value="&lt;font style=&quot;font-size: 24px;&quot;&gt;Customers&lt;/font&gt;" style="text;html=1;strokeColor=#82b366;fillColor=#d5e8d4;align=center;verticalAlign=middle;whiteSpace=wrap;overflow=hidden;" vertex="1" parent="1">
          <mxGeometry x="695" y="110" width="130" height="30" as="geometry" />
        </mxCell>
        <mxCell id="_liksZetfF2YFDfTariN-6" value="&lt;font style=&quot;font-size: 24px;&quot;&gt;Sales&lt;/font&gt;" style="text;html=1;strokeColor=#9673a6;fillColor=#e1d5e7;align=center;verticalAlign=middle;whiteSpace=wrap;overflow=hidden;" vertex="1" parent="1">
          <mxGeometry x="-20" y="315" width="130" height="30" as="geometry" />
        </mxCell>
      </root>
    </mxGraphModel>
  </diagram>
</mxfile>
